<svg width="25" height="25" viewBox="0 0 25 25" fill="none" xmlns="http://www.w3.org/2000/svg">
<path d="M12.5 2.08337C8.46875 2.08337 5.20833 5.34379 5.20833 9.37504C5.20833 14.8438 12.5 22.9167 12.5 22.9167C12.5 22.9167 19.7917 14.8438 19.7917 9.37504C19.7917 5.34379 16.5312 2.08337 12.5 2.08337ZM12.5 11.9792C11.8093 11.9792 11.1469 11.7048 10.6586 11.2165C10.1702 10.7281 9.89583 10.0657 9.89583 9.37504C9.89583 8.68437 10.1702 8.02199 10.6586 7.53362C11.1469 7.04524 11.8093 6.77087 12.5 6.77087C13.1907 6.77087 13.853 7.04524 14.3414 7.53362C14.8298 8.02199 15.1042 8.68437 15.1042 9.37504C15.1042 10.0657 14.8298 10.7281 14.3414 11.2165C13.853 11.7048 13.1907 11.9792 12.5 11.9792Z" fill="white"/>
</svg>
