<svg width="30" height="30" viewBox="0 0 30 30" fill="none" xmlns="http://www.w3.org/2000/svg">
<path d="M7.5 27.5H23.75C24.413 27.5 25.0489 27.2366 25.5178 26.7678C25.9866 26.2989 26.25 25.663 26.25 25V5C26.25 4.33696 25.9866 3.70107 25.5178 3.23223C25.0489 2.76339 24.413 2.5 23.75 2.5H6.25C5.58696 2.5 4.95107 2.76339 4.48223 3.23223C4.01339 3.70107 3.75 4.33696 3.75 5V25C3.75 25.663 4.01339 26.2989 4.48223 26.7678C4.95107 27.2366 5.58696 27.5 6.25 27.5H7.5ZM15 6.24875C17.0588 6.24875 18.75 7.9375 18.75 9.99875C18.75 12.0588 17.0588 13.75 15 13.75C12.9412 13.75 11.25 12.0588 11.25 9.99875C11.25 7.9375 12.9412 6.24875 15 6.24875ZM7.5 21.5625C7.5 18.7887 10.8812 15.9375 15 15.9375C19.1187 15.9375 22.5 18.7887 22.5 21.5625V22.5H7.5V21.5625Z" fill="black"/>
</svg>
