<svg width="30" height="30" viewBox="0 0 30 30" fill="none" xmlns="http://www.w3.org/2000/svg">
<path d="M15 2.5C11.6979 2.54211 8.54287 3.87259 6.20773 6.20773C3.87259 8.54287 2.54211 11.6979 2.5 15C2.51544 16.9236 2.97465 18.8178 3.84189 20.5349C4.70913 22.252 5.96099 23.7458 7.5 24.9V25H7.625C9.74148 26.6219 12.3336 27.5008 15 27.5008C17.6664 27.5008 20.2585 26.6219 22.375 25H22.5V24.9C24.039 23.7458 25.2909 22.252 26.1581 20.5349C27.0254 18.8178 27.4846 16.9236 27.5 15C27.4579 11.6979 26.1274 8.54287 23.7923 6.20773C21.4571 3.87259 18.3021 2.54211 15 2.5ZM10.0875 23.6625C10.27 22.8268 10.7327 22.0786 11.3989 21.542C12.065 21.0055 12.8946 20.7128 13.75 20.7125H16.25C17.1054 20.7128 17.935 21.0055 18.6011 21.542C19.2673 22.0786 19.73 22.8268 19.9125 23.6625C18.4236 24.5385 16.7275 25.0004 15 25.0004C13.2725 25.0004 11.5764 24.5385 10.0875 23.6625ZM22.0125 22.05C21.537 20.9137 20.7364 19.9432 19.7112 19.2604C18.6859 18.5777 17.4818 18.2131 16.25 18.2125H13.75C12.5182 18.2131 11.3141 18.5777 10.2888 19.2604C9.2636 19.9432 8.46297 20.9137 7.9875 22.05C7.05083 21.1287 6.30488 20.0319 5.79227 18.8223C5.27966 17.6126 5.01044 16.3138 5 15C5.03242 12.3579 6.0964 9.83316 7.96478 7.96478C9.83316 6.0964 12.3579 5.03242 15 5C17.6421 5.03242 20.1668 6.0964 22.0352 7.96478C23.9036 9.83316 24.9676 12.3579 25 15C24.9896 16.3138 24.7203 17.6126 24.2077 18.8223C23.6951 20.0319 22.9492 21.1287 22.0125 22.05Z" fill="black"/>
<path d="M14.9999 7.5C14.339 7.4846 13.682 7.60341 13.0684 7.84924C12.4548 8.09506 11.8974 8.46279 11.4301 8.93019C10.9627 9.39758 10.5949 9.95493 10.3491 10.5685C10.1033 11.1821 9.98447 11.8392 9.99986 12.5C9.98447 13.1608 10.1033 13.8179 10.3491 14.4315C10.5949 15.0451 10.9627 15.6024 11.4301 16.0698C11.8974 16.5372 12.4548 16.9049 13.0684 17.1508C13.682 17.3966 14.339 17.5154 14.9999 17.5C15.6607 17.5154 16.3178 17.3966 16.9313 17.1508C17.5449 16.9049 18.1023 16.5372 18.5697 16.0698C19.0371 15.6024 19.4048 15.0451 19.6506 14.4315C19.8964 13.8179 20.0153 13.1608 19.9999 12.5C20.0153 11.8392 19.8964 11.1821 19.6506 10.5685C19.4048 9.95493 19.0371 9.39758 18.5697 8.93019C18.1023 8.46279 17.5449 8.09506 16.9313 7.84924C16.3178 7.60341 15.6607 7.4846 14.9999 7.5ZM14.9999 15C14.6673 15.0161 14.335 14.9624 14.0245 14.8425C13.7139 14.7225 13.4318 14.5389 13.1964 14.3035C12.9609 14.0681 12.7773 13.786 12.6574 13.4754C12.5374 13.1648 12.4838 12.8326 12.4999 12.5C12.4838 12.1674 12.5374 11.8352 12.6574 11.5246C12.7773 11.214 12.9609 10.9319 13.1964 10.6965C13.4318 10.4611 13.7139 10.2775 14.0245 10.1575C14.335 10.0376 14.6673 9.98392 14.9999 10C15.3324 9.98392 15.6647 10.0376 15.9753 10.1575C16.2859 10.2775 16.5679 10.4611 16.8034 10.6965C17.0388 10.9319 17.2224 11.214 17.3423 11.5246C17.4623 11.8352 17.5159 12.1674 17.4999 12.5C17.5159 12.8326 17.4623 13.1648 17.3423 13.4754C17.2224 13.786 17.0388 14.0681 16.8034 14.3035C16.5679 14.5389 16.2859 14.7225 15.9753 14.8425C15.6647 14.9624 15.3324 15.0161 14.9999 15Z" fill="black"/>
</svg>
