<svg width="100" height="100" viewBox="0 0 100 100" fill="none" xmlns="http://www.w3.org/2000/svg">
<path d="M58.333 13.6208C58.333 10.7 55.9663 8.33331 53.0455 8.33331H46.958C44.033 8.33331 41.6663 10.7 41.6663 13.6208C41.6663 16.0291 40.0163 18.0958 37.7705 18.9791C37.4163 19.1208 37.0622 19.2708 36.7163 19.4208C34.5038 20.3791 31.8747 20.0875 30.1663 18.3833C29.1749 17.3925 27.8305 16.836 26.4288 16.836C25.0272 16.836 23.6828 17.3925 22.6913 18.3833L18.383 22.6916C17.3922 23.6831 16.8357 25.0275 16.8357 26.4291C16.8357 27.8308 17.3922 29.1752 18.383 30.1666V30.1666C20.0913 31.875 20.383 34.5 19.4163 36.7166C19.2645 37.0655 19.1186 37.4169 18.9788 37.7708C18.0955 40.0166 16.0288 41.6666 13.6205 41.6666C10.6997 41.6666 8.33301 44.0333 8.33301 46.9541V53.0458C8.33301 55.9666 10.6997 58.3333 13.6205 58.3333C16.0288 58.3333 18.0955 59.9833 18.9788 62.2292C19.1205 62.5833 19.2705 62.9375 19.4163 63.2833C20.3788 65.4958 20.0872 68.125 18.383 69.8333C17.3922 70.8248 16.8357 72.1691 16.8357 73.5708C16.8357 74.9725 17.3922 76.3168 18.383 77.3083L22.6913 81.6166C23.6828 82.6074 25.0272 83.164 26.4288 83.164C27.8305 83.164 29.1749 82.6074 30.1663 81.6166C31.8747 79.9083 34.4997 79.6167 36.7163 80.5792C37.0622 80.7333 37.4163 80.8792 37.7705 81.0208C40.0163 81.9042 41.6663 83.9708 41.6663 86.3792C41.6663 89.3 44.033 91.6667 46.9538 91.6667H53.0455C55.9663 91.6667 58.333 89.3 58.333 86.3792C58.333 83.9708 59.983 81.9042 62.2288 81.0167C62.583 80.8792 62.9372 80.7333 63.283 80.5833C65.4955 79.6167 68.1247 79.9125 69.8288 81.6166C70.3199 82.1079 70.9028 82.4975 71.5445 82.7634C72.1861 83.0292 72.8739 83.1661 73.5684 83.1661C74.263 83.1661 74.9507 83.0292 75.5924 82.7634C76.234 82.4975 76.817 82.1079 77.308 81.6166L81.6163 77.3083C82.6071 76.3168 83.1637 74.9725 83.1637 73.5708C83.1637 72.1691 82.6071 70.8248 81.6163 69.8333V69.8333C79.908 68.125 79.6163 65.5 80.5788 63.2833C80.733 62.9375 80.8788 62.5833 81.0205 62.2292C81.9038 59.9833 83.9705 58.3333 86.3789 58.3333C89.2997 58.3333 91.6663 55.9666 91.6663 53.0458V46.9583C91.6663 44.0375 89.2997 41.6708 86.3789 41.6708C83.9705 41.6708 81.9038 40.0208 81.0163 37.775C80.8767 37.421 80.7309 37.0696 80.5788 36.7208C79.6205 34.5083 79.9122 31.8791 81.6163 30.1708C82.6071 29.1793 83.1637 27.835 83.1637 26.4333C83.1637 25.0316 82.6071 23.6873 81.6163 22.6958L77.308 18.3875C76.3165 17.3967 74.9722 16.8401 73.5705 16.8401C72.1688 16.8401 70.8245 17.3967 69.833 18.3875V18.3875C68.1247 20.0958 65.4997 20.3875 63.283 19.425C62.9342 19.2717 62.5828 19.1244 62.2288 18.9833C59.983 18.0958 58.333 16.0291 58.333 13.625V13.6208Z" stroke="white" stroke-width="2"/>
<path d="M66.6663 50C66.6663 54.4203 64.9104 58.6595 61.7848 61.7851C58.6592 64.9107 54.42 66.6666 49.9997 66.6666C45.5794 66.6666 41.3402 64.9107 38.2146 61.7851C35.089 58.6595 33.333 54.4203 33.333 50C33.333 45.5797 35.089 41.3405 38.2146 38.2149C41.3402 35.0893 45.5794 33.3333 49.9997 33.3333C54.42 33.3333 58.6592 35.0893 61.7848 38.2149C64.9104 41.3405 66.6663 45.5797 66.6663 50V50Z" stroke="white" stroke-width="2"/>
</svg>
