<svg width="100" height="100" viewBox="0 0 100 100" fill="none" xmlns="http://www.w3.org/2000/svg">
<g clip-path="url(#clip0_364_908)">
<path d="M37.5 50C42.4728 50 47.2419 48.0246 50.7583 44.5083C54.2746 40.9919 56.25 36.2228 56.25 31.25C56.25 26.2772 54.2746 21.5081 50.7583 17.9917C47.2419 14.4754 42.4728 12.5 37.5 12.5C32.5272 12.5 27.7581 14.4754 24.2417 17.9917C20.7254 21.5081 18.75 26.2772 18.75 31.25C18.75 36.2228 20.7254 40.9919 24.2417 44.5083C27.7581 48.0246 32.5272 50 37.5 50ZM50 31.25C50 34.5652 48.683 37.7446 46.3388 40.0888C43.9946 42.433 40.8152 43.75 37.5 43.75C34.1848 43.75 31.0054 42.433 28.6612 40.0888C26.317 37.7446 25 34.5652 25 31.25C25 27.9348 26.317 24.7554 28.6612 22.4112C31.0054 20.067 34.1848 18.75 37.5 18.75C40.8152 18.75 43.9946 20.067 46.3388 22.4112C48.683 24.7554 50 27.9348 50 31.25ZM75 81.25C75 87.5 68.75 87.5 68.75 87.5H6.25C6.25 87.5 0 87.5 0 81.25C0 75 6.25 56.25 37.5 56.25C68.75 56.25 75 75 75 81.25ZM68.75 81.225C68.7438 79.6875 67.7875 75.0625 63.55 70.825C59.475 66.75 51.8063 62.5 37.5 62.5C23.1875 62.5 15.525 66.75 11.45 70.825C7.2125 75.0625 6.2625 79.6875 6.25 81.225H68.75Z" fill="black"/>
<path fill-rule="evenodd" clip-rule="evenodd" d="M75.9122 32.1625C76.2025 31.8715 76.5474 31.6406 76.927 31.483C77.3067 31.3255 77.7137 31.2444 78.1247 31.2444C78.5358 31.2444 78.9428 31.3255 79.3224 31.483C79.7021 31.6406 80.0469 31.8715 80.3372 32.1625L87.4997 39.3313L94.6622 32.1625C95.249 31.5757 96.0449 31.2461 96.8747 31.2461C97.7046 31.2461 98.5004 31.5757 99.0872 32.1625C99.674 32.7493 100.004 33.5452 100.004 34.375C100.004 35.2048 99.674 36.0007 99.0872 36.5875L91.9185 43.75L99.0872 50.9125C99.674 51.4993 100.004 52.2952 100.004 53.125C100.004 53.9548 99.674 54.7507 99.0872 55.3375C98.5004 55.9243 97.7046 56.2539 96.8747 56.2539C96.0449 56.2539 95.249 55.9243 94.6622 55.3375L87.4997 48.1687L80.3372 55.3375C79.7504 55.9243 78.9546 56.2539 78.1247 56.2539C77.2949 56.2539 76.499 55.9243 75.9122 55.3375C75.3254 54.7507 74.9958 53.9548 74.9958 53.125C74.9958 52.2952 75.3254 51.4993 75.9122 50.9125L83.081 43.75L75.9122 36.5875C75.6212 36.2972 75.3903 35.9524 75.2328 35.5727C75.0752 35.1931 74.9941 34.786 74.9941 34.375C74.9941 33.964 75.0752 33.5569 75.2328 33.1773C75.3903 32.7976 75.6212 32.4528 75.9122 32.1625Z" fill="black"/>
</g>
<defs>
<clipPath id="clip0_364_908">
<rect width="100" height="100" fill="white"/>
</clipPath>
</defs>
</svg>
