<svg width="45" height="45" viewBox="0 0 45 45" fill="none" xmlns="http://www.w3.org/2000/svg">
<path d="M39.891 3.57259C33.9588 8.70681 28.9399 13.5942 24.3449 19.9709C22.3185 22.7834 20.065 26.0937 18.592 29.2191C17.751 30.8763 16.2351 33.466 15.7183 35.9557C12.8917 33.326 9.85565 30.3413 6.74924 28.0034C4.5351 26.3377 -1.84225 29.7338 0.753692 31.687C5.40627 35.1865 9.27557 39.5452 13.8009 43.2007C15.6937 44.7279 19.8885 41.4113 20.8743 40.0198C24.1101 35.4354 24.5524 29.8315 26.9106 24.8309C30.5113 17.183 36.8971 10.9006 43.202 5.44501C47.3793 1.549 43.0649 0.830404 39.8974 3.57259" fill="black"/>
</svg>
