<svg width="50" height="50" viewBox="0 0 50 50" fill="none" xmlns="http://www.w3.org/2000/svg">
<path d="M25.0003 40C19.792 40 15.1878 37.3333 12.5003 33.3333C12.5628 29.1666 20.8337 26.875 25.0003 26.875C29.167 26.875 37.4378 29.1666 37.5003 33.3333C36.123 35.3841 34.2625 37.0649 32.0827 38.2274C29.903 39.39 27.4708 39.9987 25.0003 40ZM25.0003 10.4166C26.6579 10.4166 28.2476 11.0751 29.4197 12.2472C30.5918 13.4193 31.2503 15.009 31.2503 16.6666C31.2503 18.3242 30.5918 19.9139 29.4197 21.086C28.2476 22.2581 26.6579 22.9166 25.0003 22.9166C23.3427 22.9166 21.753 22.2581 20.5809 21.086C19.4088 19.9139 18.7503 18.3242 18.7503 16.6666C18.7503 15.009 19.4088 13.4193 20.5809 12.2472C21.753 11.0751 23.3427 10.4166 25.0003 10.4166ZM25.0003 4.16663C22.2645 4.16663 19.5554 4.7055 17.0278 5.75247C14.5001 6.79944 12.2035 8.33401 10.2689 10.2686C6.36193 14.1756 4.16699 19.4746 4.16699 25C4.16699 30.5253 6.36193 35.8243 10.2689 39.7314C12.2035 41.6659 14.5001 43.2005 17.0278 44.2475C19.5554 45.2944 22.2645 45.8333 25.0003 45.8333C30.5257 45.8333 35.8247 43.6384 39.7317 39.7314C43.6387 35.8243 45.8337 30.5253 45.8337 25C45.8337 13.4791 36.4587 4.16663 25.0003 4.16663Z" fill="#FFCE00"/>
</svg>
