<svg width="100" height="100" viewBox="0 0 100 100" fill="none" xmlns="http://www.w3.org/2000/svg">
<path d="M91.6667 52.7778C91.3011 52.7799 90.9387 52.7098 90.6003 52.5716C90.2618 52.4333 89.954 52.2297 89.6944 51.9722L50 12.25L10.3056 51.9722C9.77416 52.4273 9.09061 52.6651 8.39151 52.6381C7.69241 52.6111 7.02925 52.3213 6.53454 51.8266C6.03983 51.3318 5.75002 50.6687 5.72302 49.9696C5.69602 49.2705 5.93381 48.5869 6.38888 48.0555L48.0555 6.38887C48.576 5.87151 49.28 5.58112 50.0139 5.58112C50.7477 5.58112 51.4518 5.87151 51.9722 6.38887L93.6389 48.0555C94.0211 48.4455 94.2799 48.9395 94.383 49.4757C94.4861 50.0119 94.4288 50.5667 94.2184 51.0705C94.0079 51.5744 93.6537 52.0051 93.1998 52.3087C92.746 52.6124 92.2127 52.7755 91.6667 52.7778Z" fill="#012999"/>
<path d="M50 0C22.3857 0 0 22.3857 0 50C0 77.6143 22.3857 100 50 100C77.6143 100 100 77.6143 100 50C100 22.3857 77.6143 0 50 0ZM48.3032 18.4814H51.6968V28.4851H48.3032V18.4814ZM34.4238 21.4843L40.1612 29.6753L37.378 31.6284L31.6407 23.4375L34.4238 21.4843ZM65.5762 21.4843L68.3593 23.4375L62.622 31.6284L59.8388 29.6753L65.5762 21.4843ZM50 31.2195C58.3128 31.2195 65.0513 36.2653 65.0513 42.4927L56.5003 68.3899H43.4998L34.9488 42.4927C34.9488 36.2652 41.6877 31.2195 50 31.2195ZM22.9675 34.2224L32.3669 37.6465L31.2012 40.8387L21.8078 37.4146L22.9675 34.2224ZM77.0325 34.2224L78.1922 37.4146L68.7928 40.8387L67.6331 37.6465L77.0325 34.2224ZM31.9153 48.8282L32.7942 52.1118L23.1323 54.6997L22.2534 51.4161L31.9153 48.8282ZM68.0848 48.8282L77.7466 51.4161L76.8677 54.6997L67.2058 52.1118L68.0848 48.8282ZM43.3106 70.282H56.6895V74.7803H43.3106V70.282ZM43.3106 77.0202H56.6895V81.5185H43.3106V77.0202Z" fill="#012999"/>
</svg>
