<svg width="100" height="109" viewBox="0 0 100 109" fill="none" xmlns="http://www.w3.org/2000/svg">
<g clip-path="url(#clip0_21_4)">
<path d="M91.6667 22.2222H66.6667V38.8889H33.3333V22.2222H8.33333C3.73264 22.2222 0 25.9548 0 30.5555V91.6666C0 96.2673 3.73264 100 8.33333 100H91.6667C96.2674 100 100 96.2673 100 91.6666V30.5555C100 25.9548 96.2674 22.2222 91.6667 22.2222ZM50 50C56.1285 50 61.1111 54.9826 61.1111 61.1111C61.1111 67.2396 56.1285 72.2222 50 72.2222C43.8715 72.2222 38.8889 67.2396 38.8889 61.1111C38.8889 54.9826 43.8715 50 50 50ZM66.1979 88.8889H33.8021C31.9965 88.8889 30.5382 87.1527 31.0938 85.4514C32.5347 81.0069 36.7188 77.7777 41.6667 77.7777H43.0903C45.2257 78.6632 47.5521 79.1666 50 79.1666C52.4479 79.1666 54.7917 78.6632 56.9097 77.7777H58.3333C63.2639 77.7777 67.4479 80.9896 68.9062 85.4514C69.4618 87.1527 68.0035 88.8889 66.1979 88.8889ZM61.1111 16.6666C61.1111 13.5937 58.6285 11.1111 55.5556 11.1111H44.4444C41.3715 11.1111 38.8889 13.5937 38.8889 16.6666V33.3333H61.1111V16.6666Z" fill="#FFCE00"/>
</g>
<defs>
<clipPath id="clip0_21_4">
<rect width="100" height="109" fill="white"/>
</clipPath>
</defs>
</svg>
