<svg width="25" height="25" viewBox="0 0 25 25" fill="none" xmlns="http://www.w3.org/2000/svg">
<path d="M22.1191 5.50782L12.7441 2.38281C12.5851 2.33386 12.4149 2.33386 12.2559 2.38281L2.89063 5.50782H2.8711L2.77344 5.55664H2.76368L2.66602 5.61524C2.66602 5.625 2.65625 5.625 2.64649 5.63477L2.56836 5.70313L2.5 5.78125C2.5 5.79102 2.49024 5.79102 2.49024 5.80079L2.43165 5.88868C2.43165 5.89844 2.43165 5.89844 2.42188 5.90821L2.38282 5.9961L2.35352 6.10352V6.13282C2.34389 6.17108 2.34059 6.21067 2.34375 6.25V14.0625C2.34375 14.2697 2.42606 14.4684 2.57258 14.6149C2.71909 14.7614 2.9178 14.8438 3.125 14.8438C3.33221 14.8438 3.53092 14.7614 3.67743 14.6149C3.82394 14.4684 3.90625 14.2697 3.90625 14.0625V7.33399L7.1875 8.42774C6.57106 9.41445 6.24607 10.5553 6.25 11.7188C6.25036 12.7769 6.51935 13.8176 7.03177 14.7433C7.54418 15.6691 8.28324 16.4496 9.17969 17.0117C7.3168 17.7165 5.72643 18.9956 4.63868 20.6641C4.5278 20.8394 4.49024 21.0513 4.53408 21.254C4.57792 21.4568 4.69965 21.6342 4.87305 21.7481C4.95814 21.8044 5.05358 21.8434 5.15383 21.8626C5.25408 21.8818 5.35715 21.881 5.45707 21.8601C5.55698 21.8392 5.65176 21.7987 5.73591 21.7409C5.82005 21.6831 5.89189 21.6092 5.94727 21.5234C6.65638 20.4312 7.62729 19.5335 8.7717 18.912C9.91611 18.2905 11.1977 17.965 12.5 17.965C13.8023 17.965 15.0839 18.2905 16.2283 18.912C17.3727 19.5335 18.3436 20.4312 19.0527 21.5234C19.1241 21.6317 19.2212 21.7206 19.3354 21.782C19.4497 21.8433 19.5774 21.8753 19.707 21.875C19.8567 21.8766 20.0032 21.8323 20.127 21.7481C20.3004 21.6342 20.4221 21.4568 20.4659 21.254C20.5098 21.0513 20.4722 20.8394 20.3613 20.6641C19.2736 18.9956 17.6832 17.7165 15.8203 17.0117C16.7168 16.4496 17.4558 15.6691 17.9682 14.7433C18.4806 13.8176 18.7496 12.7769 18.75 11.7188C18.7539 10.5553 18.4289 9.41445 17.8125 8.42774L22.1191 6.99219C22.2754 6.94082 22.4115 6.84141 22.508 6.70814C22.6045 6.57486 22.6564 6.41453 22.6564 6.25C22.6564 6.08547 22.6045 5.92514 22.508 5.79187C22.4115 5.6586 22.2754 5.55919 22.1191 5.50782ZM17.1875 11.7188C17.1875 12.962 16.6936 14.1542 15.8146 15.0333C14.9355 15.9124 13.7432 16.4063 12.5 16.4063C11.2568 16.4063 10.0645 15.9124 9.18544 15.0333C8.30636 14.1542 7.8125 12.962 7.8125 11.7188C7.81439 10.7185 8.13225 9.7444 8.72071 8.93555L12.2559 10.1172C12.4144 10.1694 12.5856 10.1694 12.7441 10.1172L16.2793 8.93555C16.8678 9.7444 17.1856 10.7185 17.1875 11.7188ZM16.2793 7.29493H16.2695L12.5 8.55469L8.73047 7.29493H8.72071L5.59571 6.25L12.5 3.94532L19.4043 6.25L16.2793 7.29493Z" fill="#FFCE00"/>
</svg>
