<svg width="146" height="40" viewBox="0 0 146 40" fill="none" xmlns="http://www.w3.org/2000/svg">
<circle cx="17.5" cy="20.5" r="17.5" fill="white"/>
<g clip-path="url(#clip0_697_15)">
<path d="M23.8517 7.02185C23.3749 7.09841 22.9112 7.29307 22.5306 7.57741C21.9773 7.99298 21.6623 8.45886 21.612 8.93786C21.6011 9.04285 21.5726 9.13471 21.5201 9.23751C21.4108 9.45842 21.3255 9.73183 21.2621 10.073C21.0411 11.2651 21.0324 11.7003 21.1964 13.6273C21.2796 14.6006 21.3364 15.0971 21.4064 15.4099C21.5355 16.0026 21.5726 16.5538 21.5027 16.8819C21.4677 17.0547 21.378 17.2865 21.3211 17.3609L21.2839 17.4112L21.0915 17.3456C20.2909 17.07 18.9961 16.9037 18.2109 16.9715C17.3885 17.0437 17.1894 17.1115 16.2424 17.6365C15.6999 17.9361 15.2231 18.1089 14.0573 18.4282C13.3093 18.6317 12.9747 18.7366 12.7975 18.8219C12.7144 18.8635 12.4672 19.0122 12.2507 19.1522C11.7389 19.4847 11.542 19.5962 11.2708 19.71C11.004 19.8215 10.8137 19.9199 10.4331 20.1452C10.2756 20.2393 10.0897 20.3464 10.0175 20.3814C9.94753 20.4186 9.76599 20.528 9.61507 20.6242C9.38104 20.7773 9.33292 20.7992 9.27605 20.7883C9.24106 20.7817 9.08358 20.7205 8.9261 20.6548C8.7708 20.587 8.56083 20.5039 8.46022 20.4711C8.2743 20.4055 7.88935 20.3202 7.79311 20.3202C7.71437 20.3202 7.63782 20.4208 7.51315 20.6855C7.45628 20.8101 7.40379 20.9107 7.39504 20.9107C7.38847 20.9107 7.32505 20.8823 7.25287 20.8451C6.89854 20.6658 6.43484 20.517 6.23362 20.517H6.12207L6.10895 20.6089C6.09582 20.7095 6.12207 20.8823 6.16144 20.961C6.17456 20.9873 6.23362 21.0879 6.29267 21.1863C6.34954 21.2826 6.41078 21.4072 6.42391 21.4619C6.44797 21.5516 6.44578 21.5669 6.40422 21.6369C6.37798 21.6785 6.30361 21.7616 6.24018 21.8228C6.07395 21.9803 6.00615 22.0678 6.00615 22.1203C6.00615 22.1465 6.05645 22.2275 6.11551 22.2996C6.17675 22.3718 6.22487 22.4352 6.22487 22.4418C6.22268 22.4637 5.73056 22.6824 5.68025 22.6824C5.654 22.6824 5.5184 22.6387 5.3806 22.584C5.24499 22.5293 5.10938 22.4855 5.07876 22.4855C4.97159 22.4855 4.97815 22.6408 5.09189 22.8749C5.17063 23.0345 5.19031 23.052 5.51402 23.2423C5.64744 23.3211 5.78086 23.4064 5.81586 23.4348L5.87491 23.4829L5.62338 23.6338C5.48559 23.7191 5.37185 23.7935 5.37185 23.8001C5.37185 23.8066 5.45934 23.8985 5.5687 24.0035C5.78086 24.2091 5.98865 24.3534 6.21612 24.4562C6.35392 24.5175 6.76949 24.6465 6.94665 24.6837C7.05383 24.7056 8.07745 25.2261 8.44053 25.4405C8.60457 25.5389 8.77955 25.6548 8.82986 25.6964C8.87798 25.738 9.06389 25.9414 9.24106 26.147C9.79005 26.7813 10.0744 27.024 10.6803 27.3718C10.9908 27.549 11.8614 27.993 12.535 28.3189C12.7647 28.4282 13.0731 28.5988 13.224 28.6973C13.5455 28.9051 13.8342 29.0516 14.0333 29.1063C14.2279 29.1588 14.7879 29.161 14.9235 29.1085L15.0153 29.0713L15.1356 29.5678C15.2778 30.1452 15.3937 30.6789 15.4593 31.0485C15.5031 31.2804 15.5075 31.3963 15.5096 32.0547C15.5118 32.7546 15.5162 32.8093 15.5621 32.9733C15.6781 33.3932 16.0783 34.0472 16.4261 34.3928C16.6361 34.6006 16.7804 34.699 17.0123 34.7953C17.1391 34.8477 17.1807 34.8521 17.5219 34.8587C17.8828 34.8674 17.8981 34.8696 18.0359 34.9331L18.1781 35.0009L18.6374 34.8368L19.0967 34.6728L19.4467 34.6465C19.6391 34.6312 19.9038 34.5962 20.0328 34.5678C20.3237 34.5022 20.4243 34.5109 20.654 34.6268L20.8224 34.7121L20.8815 34.6553C20.9624 34.5787 20.969 34.5328 20.9187 34.4278C20.8618 34.3119 20.7984 34.2659 20.6256 34.2091L20.4834 34.161L20.3325 33.8591C20.2494 33.6951 20.1313 33.4917 20.07 33.4107L19.9585 33.262L20.0241 33.1942C20.1291 33.087 20.1181 33.0061 19.9891 32.9121C19.93 32.8705 19.8513 32.8268 19.8097 32.8114C19.7004 32.7743 19.4029 32.783 19.0114 32.8311C18.5061 32.8946 18.1059 32.8902 17.8412 32.8202C17.57 32.748 17.3732 32.6627 17.1851 32.538C17.0341 32.4374 17.0298 32.4309 17.0298 32.3434C17.0298 32.1225 16.9598 31.8731 16.8657 31.7594C16.8526 31.7419 16.8242 31.6456 16.8067 31.5494C16.787 31.451 16.7301 31.2694 16.6776 31.1448C16.4808 30.6614 16.4852 30.6811 16.483 30.1955C16.483 29.9396 16.4677 29.6575 16.4502 29.5175C16.4327 29.3841 16.4173 29.2659 16.4173 29.2506C16.4173 29.2375 16.4677 29.2594 16.5289 29.2988C16.7126 29.4234 17.3579 29.605 17.9047 29.6837C18.1824 29.7253 18.2896 29.7296 18.773 29.7209L19.3242 29.71L19.3395 29.8062C19.346 29.8587 19.3482 30.0315 19.3439 30.1911C19.3351 30.4602 19.3242 30.5149 19.1995 30.9895C19.1251 31.2694 19.0639 31.5297 19.0639 31.5691C19.0639 31.6063 19.0836 31.6806 19.1076 31.731C19.1426 31.8097 19.1601 31.825 19.2104 31.825C19.2979 31.825 19.4707 31.7681 19.5429 31.7178L19.6063 31.6719L19.6501 31.7791C19.6873 31.8687 19.6894 31.9016 19.6719 31.989C19.6566 32.0612 19.6566 32.1203 19.6763 32.1925C19.7551 32.5162 20.2691 32.9886 20.7481 33.1789C20.8727 33.2292 21.0411 33.2708 21.2664 33.3079C21.4502 33.3386 21.6054 33.3604 21.6098 33.3539C21.6295 33.3364 21.577 33.1264 21.5333 33.0433L21.4895 32.9558L21.5508 32.9711C21.6754 33.0039 22.196 33.0105 22.3644 32.9842C22.4563 32.9711 22.6597 32.9164 22.815 32.8639C23.0862 32.7721 23.1146 32.7677 23.4383 32.7524C23.7839 32.7371 23.832 32.7436 24.1667 32.8442C24.1973 32.8552 24.2039 32.8421 24.2039 32.7568C24.2039 32.6212 24.1426 32.5577 23.8999 32.4374C23.7905 32.3849 23.7008 32.3303 23.7008 32.3171C23.7008 32.3062 23.7249 32.2253 23.7555 32.1421C23.7839 32.0568 23.8102 31.965 23.8102 31.9344C23.8102 31.8644 23.937 31.3832 23.9611 31.3591C23.9698 31.3504 24.0201 31.3613 24.0748 31.3854C24.1864 31.4379 24.3307 31.4444 24.3898 31.4007C24.4248 31.3744 24.427 31.3635 24.4029 31.3044C24.3657 31.217 24.1951 31.0551 24.0705 30.9917C23.867 30.8889 23.4165 30.9217 22.6291 31.0967C22.2485 31.1798 22.126 31.1995 21.8198 31.2148C21.2249 31.2432 21.168 31.241 21.1527 31.1907C21.1439 31.1666 21.1002 31.1032 21.0543 31.0485C20.9777 30.9589 20.9733 30.9457 20.9908 30.8692C21.0215 30.738 21.0149 30.4208 20.9777 30.3027C20.9602 30.2436 20.9449 30.1496 20.9449 30.0949C20.9449 29.9352 20.8859 29.7799 20.7677 29.6247C20.7087 29.5437 20.6606 29.4781 20.6649 29.4737C20.6693 29.4715 20.7459 29.4519 20.8355 29.43C20.9252 29.4081 21.2161 29.3272 21.4808 29.2506C21.7454 29.1741 22.1632 29.0538 22.4103 28.9816C22.6575 28.9094 23.1059 28.7957 23.4055 28.7301C24.6632 28.4501 24.9847 28.332 25.7349 27.8792C26.7301 27.2821 27.2419 26.9081 27.7034 26.4444C28.2765 25.8714 28.563 25.3836 28.7511 24.6684C28.8999 24.1063 28.9392 23.7585 28.937 23.0214C28.937 22.3543 28.9108 22.0525 28.7971 21.3788C28.5915 20.1824 28.3071 19.5372 27.3272 18.0717C26.3364 16.5866 25.4965 14.8981 25.2647 13.9226C25.1597 13.4829 25.1181 12.9952 25.1641 12.7852C25.1772 12.724 25.1838 12.7196 25.2756 12.724C25.3587 12.7283 25.385 12.7436 25.4922 12.8486C25.6781 13.028 26.0849 13.3473 26.4086 13.5638C26.9445 13.9226 27.2529 14.0429 27.7406 14.0866C28.154 14.1216 28.7052 14.2485 28.9108 14.3556C29.112 14.4584 29.2236 14.4672 29.4642 14.3928C29.5976 14.3512 29.6348 14.3272 29.7551 14.2047C29.9847 13.9729 30.0372 13.8023 29.9672 13.5289C29.8819 13.1986 29.6216 12.9449 29.1951 12.7743C28.8364 12.6321 28.4799 12.3499 27.9025 11.7506C27.4782 11.3088 27.3141 11.1185 27.2419 10.9764C27.1785 10.8517 27.0035 10.3005 27.0035 10.2218C27.0035 10.1846 26.9882 10.1365 26.9685 10.1168C26.9379 10.0862 26.9335 10.0512 26.9445 9.90462C26.9642 9.6684 26.8876 8.86787 26.8285 8.6754C26.717 8.31669 26.2533 7.81144 25.7415 7.49429C25.4287 7.29744 25.1225 7.16621 24.7769 7.07435C24.5407 7.01311 24.077 6.98686 23.8517 7.02185Z" fill="#012999"/>
</g>
<path d="M75.064 14.5835C75.064 14.2466 74.9746 14.0063 74.7959 13.8628C74.6201 13.7192 74.3726 13.6475 74.0532 13.6475H72.792V15.5547H74.0532C74.3726 15.5547 74.6201 15.4771 74.7959 15.3218C74.9746 15.1665 75.064 14.9204 75.064 14.5835ZM76.4043 14.5747C76.4043 15.3394 76.2109 15.8799 75.8242 16.1963C75.4375 16.5127 74.8853 16.6709 74.1675 16.6709H72.792V19H71.4473V12.5225H74.2686C74.9189 12.5225 75.4375 12.6895 75.8242 13.0234C76.2109 13.3574 76.4043 13.8745 76.4043 14.5747ZM79.4673 18.1167C79.8335 18.1167 80.1147 17.9863 80.311 17.7256C80.5073 17.4648 80.6055 17.0942 80.6055 16.6138C80.6055 16.1333 80.5073 15.7642 80.311 15.5063C80.1147 15.2456 79.8335 15.1152 79.4673 15.1152C79.1011 15.1152 78.8184 15.2456 78.6191 15.5063C78.4229 15.7642 78.3247 16.1333 78.3247 16.6138C78.3247 17.0942 78.4229 17.4648 78.6191 17.7256C78.8184 17.9863 79.1011 18.1167 79.4673 18.1167ZM81.9194 16.6138C81.9194 17.3169 81.7173 17.9189 81.313 18.4199C80.9087 18.918 80.2949 19.167 79.4717 19.167C78.6484 19.167 78.0347 18.918 77.6304 18.4199C77.2261 17.9189 77.0239 17.3169 77.0239 16.6138C77.0239 15.9224 77.2261 15.3232 77.6304 14.8164C78.0347 14.3096 78.6484 14.0562 79.4717 14.0562C80.2949 14.0562 80.9087 14.3096 81.313 14.8164C81.7173 15.3232 81.9194 15.9224 81.9194 16.6138ZM85.4219 14.0957C85.4453 14.0957 85.4644 14.0972 85.479 14.1001C85.4966 14.1001 85.5332 14.1016 85.5889 14.1045V15.3877C85.5098 15.3789 85.4395 15.373 85.3779 15.3701C85.3164 15.3672 85.2666 15.3657 85.2285 15.3657C84.7246 15.3657 84.3862 15.5298 84.2134 15.8579C84.1167 16.0425 84.0684 16.3267 84.0684 16.7104V19H82.8071V14.21H84.0024V15.0449C84.1958 14.7256 84.3643 14.5073 84.5078 14.3901C84.7422 14.1938 85.0469 14.0957 85.4219 14.0957ZM85.835 15.146V14.2539H86.5029V12.918H87.7422V14.2539H88.52V15.146H87.7422V17.6772C87.7422 17.8735 87.7671 17.9966 87.8169 18.0464C87.8667 18.0933 88.019 18.1167 88.2739 18.1167C88.312 18.1167 88.3516 18.1167 88.3926 18.1167C88.4365 18.1138 88.479 18.1108 88.52 18.1079V19.0439L87.9268 19.0659C87.335 19.0864 86.9307 18.9839 86.7139 18.7583C86.5732 18.6147 86.5029 18.3936 86.5029 18.0947V15.146H85.835ZM91.9653 16.6709C91.8862 16.7207 91.8057 16.7617 91.7236 16.7939C91.6445 16.8232 91.5347 16.8511 91.394 16.8774L91.1128 16.9302C90.8491 16.9771 90.6602 17.0342 90.5459 17.1016C90.3525 17.2158 90.2559 17.3931 90.2559 17.6333C90.2559 17.8472 90.3145 18.0024 90.4316 18.0991C90.5518 18.1929 90.6968 18.2397 90.8667 18.2397C91.1362 18.2397 91.3838 18.1606 91.6094 18.0024C91.8379 17.8442 91.9565 17.5557 91.9653 17.1367V16.6709ZM91.2051 16.0864C91.4365 16.0571 91.6021 16.0205 91.7017 15.9766C91.8804 15.9004 91.9697 15.7817 91.9697 15.6206C91.9697 15.4243 91.9009 15.2896 91.7632 15.2163C91.6284 15.1401 91.4292 15.1021 91.1655 15.1021C90.8696 15.1021 90.6602 15.1753 90.5371 15.3218C90.4492 15.4302 90.3906 15.5767 90.3613 15.7612H89.1528C89.1792 15.3423 89.2964 14.998 89.5044 14.7285C89.8354 14.3066 90.4038 14.0957 91.2095 14.0957C91.7339 14.0957 92.1997 14.1997 92.6069 14.4077C93.0142 14.6157 93.2178 15.0083 93.2178 15.5854V17.7827C93.2178 17.9351 93.2207 18.1196 93.2266 18.3364C93.2354 18.5005 93.2603 18.6118 93.3013 18.6704C93.3423 18.729 93.4038 18.7773 93.4858 18.8154V19H92.1235C92.0854 18.9033 92.0591 18.8125 92.0444 18.7275C92.0298 18.6426 92.0181 18.5459 92.0093 18.4375C91.8364 18.625 91.6372 18.7847 91.4116 18.9165C91.1421 19.0718 90.8374 19.1494 90.4976 19.1494C90.064 19.1494 89.7051 19.0264 89.4209 18.7803C89.1396 18.5312 88.999 18.1797 88.999 17.7256C88.999 17.1367 89.2261 16.7104 89.6802 16.4468C89.9292 16.3032 90.2954 16.2007 90.7788 16.1392L91.2051 16.0864ZM95.6128 19H94.3604V12.5225H95.6128V19ZM99.4448 12.5225H100.82V16.5039C100.82 16.9492 100.873 17.2744 100.979 17.4795C101.143 17.8428 101.5 18.0244 102.051 18.0244C102.599 18.0244 102.955 17.8428 103.119 17.4795C103.224 17.2744 103.277 16.9492 103.277 16.5039V12.5225H104.652V16.5039C104.652 17.1924 104.545 17.7285 104.332 18.1123C103.933 18.8154 103.173 19.167 102.051 19.167C100.929 19.167 100.167 18.8154 99.7656 18.1123C99.5518 17.7285 99.4448 17.1924 99.4448 16.5039V12.5225ZM105.949 12.5312H110.541V13.6694H107.293V15.1592H110.137V16.2842H107.293V19H105.949V12.5312ZM111.451 12.5225H112.826V16.5039C112.826 16.9492 112.879 17.2744 112.984 17.4795C113.148 17.8428 113.506 18.0244 114.057 18.0244C114.604 18.0244 114.96 17.8428 115.125 17.4795C115.23 17.2744 115.283 16.9492 115.283 16.5039V12.5225H116.658V16.5039C116.658 17.1924 116.551 17.7285 116.337 18.1123C115.939 18.8154 115.179 19.167 114.057 19.167C112.935 19.167 112.173 18.8154 111.771 18.1123C111.558 17.7285 111.451 17.1924 111.451 16.5039V12.5225ZM42.6016 25.814C42.6016 24.6831 42.9048 23.8115 43.5112 23.1992C44.0386 22.666 44.7095 22.3994 45.5239 22.3994C46.6138 22.3994 47.4106 22.7568 47.9146 23.4717C48.1929 23.873 48.3423 24.2759 48.3628 24.6802H47.0093C46.9214 24.3696 46.8086 24.1353 46.6709 23.9771C46.4248 23.6958 46.0601 23.5552 45.5767 23.5552C45.0845 23.5552 44.6963 23.7544 44.4121 24.1528C44.1279 24.5483 43.9858 25.1094 43.9858 25.8359C43.9858 26.5625 44.1353 27.1074 44.4341 27.4707C44.7358 27.8311 45.1182 28.0112 45.5811 28.0112C46.0557 28.0112 46.4175 27.856 46.6665 27.5454C46.8042 27.3784 46.9185 27.1279 47.0093 26.7939H48.3496C48.2324 27.5 47.9321 28.0742 47.4487 28.5166C46.9683 28.959 46.3516 29.1802 45.5986 29.1802C44.667 29.1802 43.9346 28.8813 43.4014 28.2837C42.8682 27.6831 42.6016 26.8599 42.6016 25.814ZM51.9268 26.6709C51.8477 26.7207 51.7671 26.7617 51.6851 26.7939C51.606 26.8232 51.4961 26.8511 51.3555 26.8774L51.0742 26.9302C50.8105 26.9771 50.6216 27.0342 50.5073 27.1016C50.314 27.2158 50.2173 27.3931 50.2173 27.6333C50.2173 27.8472 50.2759 28.0024 50.3931 28.0991C50.5132 28.1929 50.6582 28.2397 50.8281 28.2397C51.0977 28.2397 51.3452 28.1606 51.5708 28.0024C51.7993 27.8442 51.918 27.5557 51.9268 27.1367V26.6709ZM51.1665 26.0864C51.3979 26.0571 51.5635 26.0205 51.6631 25.9766C51.8418 25.9004 51.9312 25.7817 51.9312 25.6206C51.9312 25.4243 51.8623 25.2896 51.7246 25.2163C51.5898 25.1401 51.3906 25.1021 51.127 25.1021C50.8311 25.1021 50.6216 25.1753 50.4985 25.3218C50.4106 25.4302 50.3521 25.5767 50.3228 25.7612H49.1143C49.1406 25.3423 49.2578 24.998 49.4658 24.7285C49.7969 24.3066 50.3652 24.0957 51.1709 24.0957C51.6953 24.0957 52.1611 24.1997 52.5684 24.4077C52.9756 24.6157 53.1792 25.0083 53.1792 25.5854V27.7827C53.1792 27.9351 53.1821 28.1196 53.188 28.3364C53.1968 28.5005 53.2217 28.6118 53.2627 28.6704C53.3037 28.729 53.3652 28.7773 53.4473 28.8154V29H52.085C52.0469 28.9033 52.0205 28.8125 52.0059 28.7275C51.9912 28.6426 51.9795 28.5459 51.9707 28.4375C51.7979 28.625 51.5986 28.7847 51.373 28.9165C51.1035 29.0718 50.7988 29.1494 50.459 29.1494C50.0254 29.1494 49.6665 29.0264 49.3823 28.7803C49.1011 28.5312 48.9604 28.1797 48.9604 27.7256C48.9604 27.1367 49.1875 26.7104 49.6416 26.4468C49.8906 26.3032 50.2568 26.2007 50.7402 26.1392L51.1665 26.0864ZM59.6479 24.1045C59.8589 24.1045 60.0669 24.1455 60.272 24.2275C60.4771 24.3096 60.6631 24.4531 60.8301 24.6582C60.9648 24.8252 61.0557 25.0303 61.1025 25.2734C61.1318 25.4346 61.1465 25.6704 61.1465 25.981L61.1377 29H59.8545V25.9502C59.8545 25.7686 59.8252 25.6191 59.7666 25.502C59.6553 25.2793 59.4502 25.168 59.1514 25.168C58.8057 25.168 58.5669 25.3115 58.4351 25.5986C58.3677 25.751 58.334 25.9341 58.334 26.1479V29H57.0728V26.1479C57.0728 25.8638 57.0435 25.6572 56.9849 25.5283C56.8794 25.2969 56.6729 25.1812 56.3652 25.1812C56.0078 25.1812 55.7676 25.2969 55.6445 25.5283C55.5771 25.6602 55.5435 25.8564 55.5435 26.1172V29H54.2734V24.2188H55.4907V24.9175C55.646 24.6685 55.7925 24.4912 55.9302 24.3857C56.1733 24.1982 56.4883 24.1045 56.875 24.1045C57.2412 24.1045 57.5371 24.1851 57.7627 24.3462C57.9443 24.4956 58.082 24.6875 58.1758 24.9219C58.3398 24.6406 58.5435 24.4341 58.7866 24.3022C59.0444 24.1704 59.3315 24.1045 59.6479 24.1045ZM65.6025 26.605C65.6025 26.2358 65.5176 25.9092 65.3477 25.625C65.1807 25.3408 64.9082 25.1987 64.5303 25.1987C64.0762 25.1987 63.7642 25.4141 63.5942 25.8447C63.5063 26.0732 63.4624 26.3633 63.4624 26.7148C63.4624 27.2715 63.6104 27.6626 63.9062 27.8882C64.082 28.02 64.29 28.0859 64.5303 28.0859C64.8789 28.0859 65.144 27.9512 65.3257 27.6816C65.5103 27.4121 65.6025 27.0532 65.6025 26.605ZM64.8906 24.1045C65.4502 24.1045 65.9233 24.311 66.3101 24.7241C66.6997 25.1372 66.8945 25.7437 66.8945 26.5435C66.8945 27.3872 66.7041 28.0303 66.3232 28.4727C65.9453 28.915 65.4575 29.1362 64.8599 29.1362C64.479 29.1362 64.1626 29.041 63.9106 28.8506C63.7729 28.7451 63.6382 28.5913 63.5063 28.3892V30.8853H62.2671V24.21H63.4668V24.9175C63.6016 24.7095 63.7451 24.5454 63.8975 24.4253C64.1758 24.2114 64.5068 24.1045 64.8906 24.1045ZM69.0522 24.21V27.0972C69.0522 27.3696 69.0845 27.5747 69.1489 27.7124C69.2632 27.9556 69.4873 28.0771 69.8213 28.0771C70.249 28.0771 70.542 27.9043 70.7002 27.5586C70.7822 27.3711 70.8232 27.1235 70.8232 26.8159V24.21H72.0933V29H70.876V28.3232C70.8643 28.3379 70.835 28.3818 70.7881 28.4551C70.7412 28.5283 70.6855 28.5928 70.6211 28.6484C70.4248 28.8242 70.2344 28.9443 70.0498 29.0088C69.8682 29.0732 69.6543 29.1055 69.4082 29.1055C68.6992 29.1055 68.2217 28.8506 67.9756 28.3408C67.8379 28.0596 67.769 27.645 67.769 27.0972V24.21H69.0522ZM74.2817 27.4707C74.3081 27.6934 74.3652 27.8516 74.4531 27.9453C74.6084 28.1123 74.8955 28.1958 75.3145 28.1958C75.5605 28.1958 75.7554 28.1592 75.8989 28.0859C76.0454 28.0127 76.1187 27.9028 76.1187 27.7563C76.1187 27.6157 76.0601 27.5088 75.9429 27.4355C75.8257 27.3623 75.3906 27.2363 74.6377 27.0576C74.0957 26.9229 73.7134 26.7544 73.4907 26.5522C73.2681 26.353 73.1567 26.0659 73.1567 25.6909C73.1567 25.2485 73.3296 24.8691 73.6753 24.5527C74.0239 24.2334 74.5132 24.0737 75.1431 24.0737C75.7407 24.0737 76.2271 24.1938 76.6021 24.4341C76.98 24.6714 77.1968 25.083 77.2524 25.6689H76C75.9824 25.5078 75.937 25.3804 75.8638 25.2866C75.7261 25.1167 75.4917 25.0317 75.1606 25.0317C74.8882 25.0317 74.6934 25.0742 74.5762 25.1592C74.4619 25.2441 74.4048 25.3438 74.4048 25.458C74.4048 25.6016 74.4663 25.7056 74.5894 25.77C74.7124 25.8374 75.1475 25.9531 75.8945 26.1172C76.3926 26.2344 76.7661 26.4116 77.0151 26.6489C77.2612 26.8892 77.3843 27.1895 77.3843 27.5498C77.3843 28.0244 77.207 28.4126 76.8525 28.7144C76.501 29.0132 75.9561 29.1626 75.2178 29.1626C74.4648 29.1626 73.9082 29.0044 73.5479 28.688C73.1904 28.3687 73.0117 27.9629 73.0117 27.4707H74.2817ZM84.5693 24.5835C84.5693 24.2466 84.48 24.0063 84.3013 23.8628C84.1255 23.7192 83.8779 23.6475 83.5586 23.6475H82.2974V25.5547H83.5586C83.8779 25.5547 84.1255 25.4771 84.3013 25.3218C84.48 25.1665 84.5693 24.9204 84.5693 24.5835ZM85.9097 24.5747C85.9097 25.3394 85.7163 25.8799 85.3296 26.1963C84.9429 26.5127 84.3906 26.6709 83.6729 26.6709H82.2974V29H80.9526V22.5225H83.7739C84.4243 22.5225 84.9429 22.6895 85.3296 23.0234C85.7163 23.3574 85.9097 23.8745 85.9097 24.5747ZM89.4648 26.6709C89.3857 26.7207 89.3052 26.7617 89.2231 26.7939C89.144 26.8232 89.0342 26.8511 88.8936 26.8774L88.6123 26.9302C88.3486 26.9771 88.1597 27.0342 88.0454 27.1016C87.8521 27.2158 87.7554 27.3931 87.7554 27.6333C87.7554 27.8472 87.814 28.0024 87.9312 28.0991C88.0513 28.1929 88.1963 28.2397 88.3662 28.2397C88.6357 28.2397 88.8833 28.1606 89.1089 28.0024C89.3374 27.8442 89.4561 27.5557 89.4648 27.1367V26.6709ZM88.7046 26.0864C88.936 26.0571 89.1016 26.0205 89.2012 25.9766C89.3799 25.9004 89.4692 25.7817 89.4692 25.6206C89.4692 25.4243 89.4004 25.2896 89.2627 25.2163C89.1279 25.1401 88.9287 25.1021 88.665 25.1021C88.3691 25.1021 88.1597 25.1753 88.0366 25.3218C87.9487 25.4302 87.8901 25.5767 87.8608 25.7612H86.6523C86.6787 25.3423 86.7959 24.998 87.0039 24.7285C87.335 24.3066 87.9033 24.0957 88.709 24.0957C89.2334 24.0957 89.6992 24.1997 90.1064 24.4077C90.5137 24.6157 90.7173 25.0083 90.7173 25.5854V27.7827C90.7173 27.9351 90.7202 28.1196 90.7261 28.3364C90.7349 28.5005 90.7598 28.6118 90.8008 28.6704C90.8418 28.729 90.9033 28.7773 90.9854 28.8154V29H89.623C89.585 28.9033 89.5586 28.8125 89.5439 28.7275C89.5293 28.6426 89.5176 28.5459 89.5088 28.4375C89.3359 28.625 89.1367 28.7847 88.9111 28.9165C88.6416 29.0718 88.3369 29.1494 87.9971 29.1494C87.5635 29.1494 87.2046 29.0264 86.9204 28.7803C86.6392 28.5312 86.4985 28.1797 86.4985 27.7256C86.4985 27.1367 86.7256 26.7104 87.1797 26.4468C87.4287 26.3032 87.7949 26.2007 88.2783 26.1392L88.7046 26.0864ZM91.3413 25.146V24.2539H92.0093V22.918H93.2485V24.2539H94.0264V25.146H93.2485V27.6772C93.2485 27.8735 93.2734 27.9966 93.3232 28.0464C93.373 28.0933 93.5254 28.1167 93.7803 28.1167C93.8184 28.1167 93.8579 28.1167 93.8989 28.1167C93.9429 28.1138 93.9854 28.1108 94.0264 28.1079V29.0439L93.4331 29.0659C92.8413 29.0864 92.437 28.9839 92.2202 28.7583C92.0796 28.6147 92.0093 28.3936 92.0093 28.0947V25.146H91.3413ZM96.9795 28.1167C97.3457 28.1167 97.627 27.9863 97.8232 27.7256C98.0195 27.4648 98.1177 27.0942 98.1177 26.6138C98.1177 26.1333 98.0195 25.7642 97.8232 25.5063C97.627 25.2456 97.3457 25.1152 96.9795 25.1152C96.6133 25.1152 96.3306 25.2456 96.1313 25.5063C95.9351 25.7642 95.8369 26.1333 95.8369 26.6138C95.8369 27.0942 95.9351 27.4648 96.1313 27.7256C96.3306 27.9863 96.6133 28.1167 96.9795 28.1167ZM99.4316 26.6138C99.4316 27.3169 99.2295 27.9189 98.8252 28.4199C98.4209 28.918 97.8071 29.167 96.9839 29.167C96.1606 29.167 95.5469 28.918 95.1426 28.4199C94.7383 27.9189 94.5361 27.3169 94.5361 26.6138C94.5361 25.9224 94.7383 25.3232 95.1426 24.8164C95.5469 24.3096 96.1606 24.0562 96.9839 24.0562C97.8071 24.0562 98.4209 24.3096 98.8252 24.8164C99.2295 25.3232 99.4316 25.9224 99.4316 26.6138ZM101.308 27.4707C101.334 27.6934 101.392 27.8516 101.479 27.9453C101.635 28.1123 101.922 28.1958 102.341 28.1958C102.587 28.1958 102.782 28.1592 102.925 28.0859C103.072 28.0127 103.145 27.9028 103.145 27.7563C103.145 27.6157 103.086 27.5088 102.969 27.4355C102.852 27.3623 102.417 27.2363 101.664 27.0576C101.122 26.9229 100.74 26.7544 100.517 26.5522C100.294 26.353 100.183 26.0659 100.183 25.6909C100.183 25.2485 100.356 24.8691 100.702 24.5527C101.05 24.2334 101.54 24.0737 102.169 24.0737C102.767 24.0737 103.253 24.1938 103.628 24.4341C104.006 24.6714 104.223 25.083 104.279 25.6689H103.026C103.009 25.5078 102.963 25.3804 102.89 25.2866C102.752 25.1167 102.518 25.0317 102.187 25.0317C101.915 25.0317 101.72 25.0742 101.603 25.1592C101.488 25.2441 101.431 25.3438 101.431 25.458C101.431 25.6016 101.493 25.7056 101.616 25.77C101.739 25.8374 102.174 25.9531 102.921 26.1172C103.419 26.2344 103.792 26.4116 104.042 26.6489C104.288 26.8892 104.411 27.1895 104.411 27.5498C104.411 28.0244 104.233 28.4126 103.879 28.7144C103.527 29.0132 102.982 29.1626 102.244 29.1626C101.491 29.1626 100.935 29.0044 100.574 28.688C100.217 28.3687 100.038 27.9629 100.038 27.4707H101.308ZM109.614 24.0957C109.904 24.0957 110.162 24.1602 110.387 24.2891C110.613 24.415 110.796 24.5908 110.937 24.8164V22.5312H112.207V29H110.989V28.3364C110.811 28.6206 110.607 28.8271 110.378 28.9561C110.15 29.085 109.866 29.1494 109.526 29.1494C108.966 29.1494 108.495 28.9238 108.111 28.4727C107.73 28.0186 107.54 27.437 107.54 26.728C107.54 25.9106 107.727 25.2676 108.102 24.7988C108.48 24.3301 108.984 24.0957 109.614 24.0957ZM109.886 28.0947C110.241 28.0947 110.51 27.9629 110.695 27.6992C110.879 27.4355 110.972 27.0942 110.972 26.6753C110.972 26.0894 110.824 25.6704 110.528 25.4185C110.346 25.2661 110.135 25.1899 109.895 25.1899C109.529 25.1899 109.259 25.3291 109.086 25.6074C108.917 25.8828 108.832 26.2256 108.832 26.6357C108.832 27.0781 108.918 27.4326 109.091 27.6992C109.267 27.9629 109.532 28.0947 109.886 28.0947ZM115.239 25.1152C114.949 25.1152 114.723 25.2061 114.562 25.3877C114.404 25.5693 114.304 25.8154 114.263 26.126H116.21C116.189 25.7949 116.088 25.5444 115.907 25.3745C115.728 25.2017 115.505 25.1152 115.239 25.1152ZM115.239 24.0825C115.637 24.0825 115.996 24.1572 116.315 24.3066C116.635 24.4561 116.898 24.6919 117.106 25.0142C117.294 25.2983 117.416 25.6279 117.471 26.0029C117.503 26.2227 117.517 26.5391 117.511 26.9521H114.232C114.25 27.4326 114.401 27.7695 114.685 27.9629C114.858 28.083 115.066 28.1431 115.309 28.1431C115.567 28.1431 115.776 28.0698 115.938 27.9233C116.025 27.8442 116.103 27.7344 116.17 27.5938H117.449C117.417 27.8779 117.269 28.1665 117.005 28.4595C116.595 28.9253 116.021 29.1582 115.283 29.1582C114.673 29.1582 114.136 28.9619 113.67 28.5693C113.204 28.1768 112.971 27.5381 112.971 26.6533C112.971 25.8242 113.181 25.1885 113.6 24.7461C114.021 24.3037 114.568 24.0825 115.239 24.0825ZM125.258 22.5225H127.205V29H125.944V24.6187C125.944 24.4927 125.945 24.3169 125.948 24.0913C125.951 23.8628 125.953 23.687 125.953 23.564L124.727 29H123.413L122.195 23.564C122.195 23.687 122.197 23.8628 122.2 24.0913C122.203 24.3169 122.204 24.4927 122.204 24.6187V29H120.943V22.5225H122.912L124.089 27.6157L125.258 22.5225ZM129.648 23.6387H128.378V22.4829H129.648V23.6387ZM128.378 24.21H129.648V29H128.378V24.21ZM133.52 24.0957C134.015 24.0957 134.419 24.2261 134.733 24.4868C135.049 24.7446 135.208 25.1738 135.208 25.7744V29H133.924V26.0864C133.924 25.8345 133.891 25.6411 133.823 25.5063C133.7 25.2603 133.466 25.1372 133.12 25.1372C132.695 25.1372 132.404 25.3174 132.246 25.6777C132.164 25.8682 132.123 26.1113 132.123 26.4072V29H130.875V24.2188H132.083V24.9175C132.244 24.6714 132.396 24.4941 132.54 24.3857C132.798 24.1924 133.125 24.0957 133.52 24.0957ZM139.009 26.6709C138.93 26.7207 138.849 26.7617 138.767 26.7939C138.688 26.8232 138.578 26.8511 138.438 26.8774L138.156 26.9302C137.893 26.9771 137.704 27.0342 137.589 27.1016C137.396 27.2158 137.299 27.3931 137.299 27.6333C137.299 27.8472 137.358 28.0024 137.475 28.0991C137.595 28.1929 137.74 28.2397 137.91 28.2397C138.18 28.2397 138.427 28.1606 138.653 28.0024C138.881 27.8442 139 27.5557 139.009 27.1367V26.6709ZM138.249 26.0864C138.48 26.0571 138.646 26.0205 138.745 25.9766C138.924 25.9004 139.013 25.7817 139.013 25.6206C139.013 25.4243 138.944 25.2896 138.807 25.2163C138.672 25.1401 138.473 25.1021 138.209 25.1021C137.913 25.1021 137.704 25.1753 137.581 25.3218C137.493 25.4302 137.434 25.5767 137.405 25.7612H136.196C136.223 25.3423 136.34 24.998 136.548 24.7285C136.879 24.3066 137.447 24.0957 138.253 24.0957C138.777 24.0957 139.243 24.1997 139.65 24.4077C140.058 24.6157 140.261 25.0083 140.261 25.5854V27.7827C140.261 27.9351 140.264 28.1196 140.27 28.3364C140.279 28.5005 140.304 28.6118 140.345 28.6704C140.386 28.729 140.447 28.7773 140.529 28.8154V29H139.167C139.129 28.9033 139.103 28.8125 139.088 28.7275C139.073 28.6426 139.062 28.5459 139.053 28.4375C138.88 28.625 138.681 28.7847 138.455 28.9165C138.186 29.0718 137.881 29.1494 137.541 29.1494C137.107 29.1494 136.749 29.0264 136.464 28.7803C136.183 28.5312 136.042 28.1797 136.042 27.7256C136.042 27.1367 136.27 26.7104 136.724 26.4468C136.973 26.3032 137.339 26.2007 137.822 26.1392L138.249 26.0864ZM142.353 27.4707C142.379 27.6934 142.437 27.8516 142.524 27.9453C142.68 28.1123 142.967 28.1958 143.386 28.1958C143.632 28.1958 143.827 28.1592 143.97 28.0859C144.117 28.0127 144.19 27.9028 144.19 27.7563C144.19 27.6157 144.131 27.5088 144.014 27.4355C143.897 27.3623 143.462 27.2363 142.709 27.0576C142.167 26.9229 141.785 26.7544 141.562 26.5522C141.339 26.353 141.228 26.0659 141.228 25.6909C141.228 25.2485 141.401 24.8691 141.747 24.5527C142.095 24.2334 142.584 24.0737 143.214 24.0737C143.812 24.0737 144.298 24.1938 144.673 24.4341C145.051 24.6714 145.268 25.083 145.324 25.6689H144.071C144.054 25.5078 144.008 25.3804 143.935 25.2866C143.797 25.1167 143.563 25.0317 143.232 25.0317C142.959 25.0317 142.765 25.0742 142.647 25.1592C142.533 25.2441 142.476 25.3438 142.476 25.458C142.476 25.6016 142.538 25.7056 142.661 25.77C142.784 25.8374 143.219 25.9531 143.966 26.1172C144.464 26.2344 144.837 26.4116 145.086 26.6489C145.333 26.8892 145.456 27.1895 145.456 27.5498C145.456 28.0244 145.278 28.4126 144.924 28.7144C144.572 29.0132 144.027 29.1626 143.289 29.1626C142.536 29.1626 141.979 29.0044 141.619 28.688C141.262 28.3687 141.083 27.9629 141.083 27.4707H142.353Z" fill="white"/>
<defs>
<clipPath id="clip0_697_15">
<rect width="25" height="27.9965" fill="white" transform="translate(5 7)"/>
</clipPath>
</defs>
</svg>
