<svg width="100" height="100" viewBox="0 0 100 100" fill="none" xmlns="http://www.w3.org/2000/svg">
<g clip-path="url(#clip0_337_490)">
<path d="M95.8333 16.6667H15.2778C12.9766 16.6667 11.1111 18.5321 11.1111 20.8333V22.2222H4.16667C1.86545 22.2222 0 24.0877 0 26.3889V73.6111C0 78.9805 4.35278 83.3333 9.72222 83.3333H91.6667C96.2691 83.3333 100 79.6024 100 75V20.8333C100 18.5321 98.1345 16.6667 95.8333 16.6667ZM9.72222 75C9.35387 75 9.0006 74.8537 8.74013 74.5932C8.47966 74.3327 8.33333 73.9795 8.33333 73.6111V30.5555H11.1111V73.6111C11.1111 73.9795 10.9648 74.3327 10.7043 74.5932C10.4438 74.8537 10.0906 75 9.72222 75ZM50.6944 72.2222H24.3056C23.155 72.2222 22.2222 71.2894 22.2222 70.1389V68.75C22.2222 67.5995 23.155 66.6666 24.3056 66.6666H50.6944C51.845 66.6666 52.7778 67.5995 52.7778 68.75V70.1389C52.7778 71.2894 51.845 72.2222 50.6944 72.2222ZM86.8055 72.2222H60.4167C59.2661 72.2222 58.3333 71.2894 58.3333 70.1389V68.75C58.3333 67.5995 59.2661 66.6666 60.4167 66.6666H86.8055C87.9561 66.6666 88.8889 67.5995 88.8889 68.75V70.1389C88.8889 71.2894 87.9561 72.2222 86.8055 72.2222ZM50.6944 55.5555H24.3056C23.155 55.5555 22.2222 54.6227 22.2222 53.4722V52.0833C22.2222 50.9328 23.155 50 24.3056 50H50.6944C51.845 50 52.7778 50.9328 52.7778 52.0833V53.4722C52.7778 54.6227 51.845 55.5555 50.6944 55.5555ZM86.8055 55.5555H60.4167C59.2661 55.5555 58.3333 54.6227 58.3333 53.4722V52.0833C58.3333 50.9328 59.2661 50 60.4167 50H86.8055C87.9561 50 88.8889 50.9328 88.8889 52.0833V53.4722C88.8889 54.6227 87.9561 55.5555 86.8055 55.5555ZM86.8055 38.8889H24.3056C23.155 38.8889 22.2222 37.9561 22.2222 36.8055V29.8611C22.2222 28.7106 23.155 27.7778 24.3056 27.7778H86.8055C87.9561 27.7778 88.8889 28.7106 88.8889 29.8611V36.8055C88.8889 37.9561 87.9561 38.8889 86.8055 38.8889Z" fill="white"/>
</g>
<defs>
<clipPath id="clip0_337_490">
<rect width="100" height="100" fill="white"/>
</clipPath>
</defs>
</svg>
