<svg width="100" height="104" viewBox="0 0 100 104" fill="none" xmlns="http://www.w3.org/2000/svg">
<g filter="url(#filter0_d_364_905)">
<path fill-rule="evenodd" clip-rule="evenodd" d="M50.0003 4.16666C24.6878 4.16666 4.16699 24.6875 4.16699 50C4.16699 75.3125 24.6878 95.8333 50.0003 95.8333C75.3128 95.8333 95.8337 75.3125 95.8337 50C95.8337 24.6875 75.3128 4.16666 50.0003 4.16666ZM65.4462 40.4458C66.2051 39.66 66.6251 38.6075 66.6156 37.515C66.6061 36.4225 66.1679 35.3774 65.3954 34.6049C64.6229 33.8324 63.5778 33.3942 62.4853 33.3847C61.3928 33.3752 60.3403 33.7952 59.5545 34.5542L50.0003 44.1083L40.4462 34.5542C40.0618 34.1562 39.602 33.8388 39.0937 33.6204C38.5853 33.402 38.0386 33.2871 37.4853 33.2823C36.9321 33.2775 36.3834 33.3829 35.8713 33.5924C35.3593 33.8019 34.8941 34.1113 34.5028 34.5025C34.1116 34.8937 33.8022 35.3589 33.5927 35.871C33.3832 36.3831 33.2778 36.9317 33.2826 37.485C33.2874 38.0382 33.4024 38.585 33.6207 39.0933C33.8391 39.6017 34.1565 40.0615 34.5545 40.4458L44.1087 50L34.5545 59.5542C34.1565 59.9385 33.8391 60.3983 33.6207 60.9066C33.4024 61.415 33.2874 61.9617 33.2826 62.515C33.2778 63.0682 33.3832 63.6169 33.5927 64.129C33.8022 64.641 34.1116 65.1062 34.5028 65.4975C34.8941 65.8887 35.3593 66.1981 35.8713 66.4076C36.3834 66.6171 36.9321 66.7225 37.4853 66.7177C38.0386 66.7129 38.5853 66.5979 39.0937 66.3796C39.602 66.1612 40.0618 65.8438 40.4462 65.4458L50.0003 55.8917L59.5545 65.4458C60.3403 66.2048 61.3928 66.6248 62.4853 66.6153C63.5778 66.6058 64.6229 66.1676 65.3954 65.3951C66.1679 64.6225 66.6061 63.5775 66.6156 62.485C66.6251 61.3925 66.2051 60.34 65.4462 59.5542L55.892 50L65.4462 40.4458Z" fill="black"/>
</g>
<defs>
<filter id="filter0_d_364_905" x="-4" y="0" width="108" height="108" filterUnits="userSpaceOnUse" color-interpolation-filters="sRGB">
<feFlood flood-opacity="0" result="BackgroundImageFix"/>
<feColorMatrix in="SourceAlpha" type="matrix" values="0 0 0 0 0 0 0 0 0 0 0 0 0 0 0 0 0 0 127 0" result="hardAlpha"/>
<feOffset dy="4"/>
<feGaussianBlur stdDeviation="2"/>
<feComposite in2="hardAlpha" operator="out"/>
<feColorMatrix type="matrix" values="0 0 0 0 0 0 0 0 0 0 0 0 0 0 0 0 0 0 0.25 0"/>
<feBlend mode="normal" in2="BackgroundImageFix" result="effect1_dropShadow_364_905"/>
<feBlend mode="normal" in="SourceGraphic" in2="effect1_dropShadow_364_905" result="shape"/>
</filter>
</defs>
</svg>
