<svg width="100" height="100" viewBox="0 0 100 100" fill="none" xmlns="http://www.w3.org/2000/svg">
<path d="M20.833 20.8333V79.1667C20.833 80.2717 21.272 81.3315 22.0534 82.1129C22.8348 82.8943 23.8946 83.3333 24.9997 83.3333H37.4997V75H29.1663V25H37.4997V16.6667H24.9997C23.8946 16.6667 22.8348 17.1056 22.0534 17.887C21.272 18.6684 20.833 19.7283 20.833 20.8333ZM80.1747 16.7917L46.8413 8.45832C46.2272 8.30516 45.5863 8.2939 44.9672 8.42541C44.3481 8.55692 43.7671 8.82774 43.2683 9.2173C42.7695 9.60687 42.366 10.105 42.0884 10.6737C41.8109 11.2425 41.6665 11.8671 41.6663 12.5V87.5C41.6649 88.1334 41.8082 88.7588 42.0853 89.3285C42.3623 89.8981 42.7659 90.3969 43.2651 90.7868C43.7644 91.1767 44.3461 91.4474 44.9658 91.5782C45.5856 91.709 46.2271 91.6965 46.8413 91.5417L80.1747 83.2083C81.0765 82.9834 81.8772 82.4634 82.4495 81.7311C83.0218 80.9987 83.3327 80.0961 83.333 79.1667V20.8333C83.3327 19.9039 83.0218 19.0012 82.4495 18.2689C81.8772 17.5366 81.0765 17.0166 80.1747 16.7917ZM62.4997 50.7833C62.4517 51.8562 61.9917 52.8691 61.2156 53.6113C60.4394 54.3535 59.4069 54.7678 58.333 54.7678C57.2591 54.7678 56.2266 54.3535 55.4504 53.6113C54.6743 52.8691 54.2143 51.8562 54.1663 50.7833V49.2125C54.1669 48.1074 54.6064 47.0478 55.3882 46.2668C56.17 45.4858 57.23 45.0474 58.3351 45.0479C59.4402 45.0485 60.4997 45.488 61.2808 46.2698C62.0618 47.0516 62.5002 48.1116 62.4997 49.2167V50.7833Z" fill="white"/>
</svg>
