<svg width="175" height="59" viewBox="0 0 175 59" fill="none" xmlns="http://www.w3.org/2000/svg">
<rect width="175" height="59" rx="25" fill="#1A1A1A"/>
<path d="M71.1104 26.6948C71.1104 25.9087 70.9019 25.3481 70.4849 25.0132C70.0747 24.6782 69.4971 24.5107 68.752 24.5107H65.8091V28.9609H68.752C69.4971 28.9609 70.0747 28.7798 70.4849 28.4175C70.9019 28.0552 71.1104 27.481 71.1104 26.6948ZM74.2378 26.6743C74.2378 28.4585 73.7866 29.7197 72.8843 30.458C71.9819 31.1963 70.6934 31.5654 69.0186 31.5654H65.8091V37H62.6714V21.8857H69.2544C70.772 21.8857 71.9819 22.2754 72.8843 23.0547C73.7866 23.834 74.2378 25.0405 74.2378 26.6743ZM82.4409 25.5566C82.4956 25.5566 82.54 25.5601 82.5742 25.5669C82.6152 25.5669 82.7007 25.5703 82.8306 25.5771V28.5713C82.646 28.5508 82.4819 28.5371 82.3384 28.5303C82.1948 28.5234 82.0786 28.52 81.9897 28.52C80.814 28.52 80.0244 28.9028 79.6211 29.6685C79.3955 30.0991 79.2827 30.7622 79.2827 31.6577V37H76.3398V25.8232H79.1289V27.7715C79.5801 27.0264 79.9731 26.5171 80.3081 26.2437C80.855 25.7856 81.5659 25.5566 82.4409 25.5566ZM89.5674 34.939C90.4219 34.939 91.0781 34.6348 91.5361 34.0264C91.9941 33.418 92.2231 32.5532 92.2231 31.4321C92.2231 30.311 91.9941 29.4497 91.5361 28.8481C91.0781 28.2397 90.4219 27.9355 89.5674 27.9355C88.7129 27.9355 88.0532 28.2397 87.5884 28.8481C87.1304 29.4497 86.9014 30.311 86.9014 31.4321C86.9014 32.5532 87.1304 33.418 87.5884 34.0264C88.0532 34.6348 88.7129 34.939 89.5674 34.939ZM95.2891 31.4321C95.2891 33.0728 94.8174 34.4775 93.874 35.6465C92.9307 36.8086 91.4985 37.3896 89.5776 37.3896C87.6567 37.3896 86.2246 36.8086 85.2812 35.6465C84.3379 34.4775 83.8662 33.0728 83.8662 31.4321C83.8662 29.8188 84.3379 28.4209 85.2812 27.2383C86.2246 26.0557 87.6567 25.4644 89.5776 25.4644C91.4985 25.4644 92.9307 26.0557 93.874 27.2383C94.8174 28.4209 95.2891 29.8188 95.2891 31.4321ZM104.066 29.8325C104.012 29.4155 103.872 29.0396 103.646 28.7046C103.318 28.2534 102.809 28.0278 102.118 28.0278C101.134 28.0278 100.46 28.5166 100.098 29.4941C99.9067 30.0137 99.811 30.7041 99.811 31.5654C99.811 32.3857 99.9067 33.0454 100.098 33.5444C100.447 34.4741 101.103 34.939 102.067 34.939C102.75 34.939 103.236 34.7544 103.523 34.3853C103.81 34.0161 103.984 33.5376 104.046 32.9497H107.03C106.961 33.8384 106.64 34.6792 106.066 35.4722C105.15 36.7505 103.793 37.3896 101.995 37.3896C100.197 37.3896 98.8745 36.8564 98.0269 35.79C97.1792 34.7236 96.7554 33.3394 96.7554 31.6372C96.7554 29.7163 97.2236 28.2227 98.1602 27.1562C99.0967 26.0898 100.389 25.5566 102.036 25.5566C103.438 25.5566 104.583 25.8711 105.471 26.5C106.367 27.1289 106.896 28.2397 107.061 29.8325H104.066ZM111.993 25.8232V32.5601C111.993 33.1958 112.068 33.6743 112.218 33.9956C112.485 34.563 113.008 34.8467 113.787 34.8467C114.785 34.8467 115.469 34.4434 115.838 33.6367C116.029 33.1992 116.125 32.6216 116.125 31.9038V25.8232H119.088V37H116.248V35.4209C116.221 35.4551 116.152 35.5576 116.043 35.7285C115.934 35.8994 115.804 36.0498 115.653 36.1797C115.195 36.5898 114.751 36.8701 114.32 37.0205C113.896 37.1709 113.397 37.2461 112.823 37.2461C111.169 37.2461 110.055 36.6514 109.48 35.4619C109.159 34.8057 108.999 33.8384 108.999 32.5601V25.8232H111.993ZM127.989 25.5566C128.043 25.5566 128.088 25.5601 128.122 25.5669C128.163 25.5669 128.249 25.5703 128.378 25.5771V28.5713C128.194 28.5508 128.03 28.5371 127.886 28.5303C127.743 28.5234 127.626 28.52 127.538 28.52C126.362 28.52 125.572 28.9028 125.169 29.6685C124.943 30.0991 124.831 30.7622 124.831 31.6577V37H121.888V25.8232H124.677V27.7715C125.128 27.0264 125.521 26.5171 125.856 26.2437C126.403 25.7856 127.114 25.5566 127.989 25.5566ZM136.264 31.5654C136.079 31.6816 135.891 31.7773 135.7 31.8525C135.515 31.9209 135.259 31.9858 134.931 32.0474L134.274 32.1704C133.659 32.2798 133.218 32.4131 132.952 32.5703C132.5 32.8369 132.275 33.2505 132.275 33.811C132.275 34.3101 132.412 34.6724 132.685 34.8979C132.965 35.1167 133.304 35.2261 133.7 35.2261C134.329 35.2261 134.907 35.0415 135.433 34.6724C135.966 34.3032 136.243 33.6299 136.264 32.6523V31.5654ZM134.49 30.2017C135.03 30.1333 135.416 30.0479 135.648 29.9453C136.065 29.7676 136.274 29.4907 136.274 29.1147C136.274 28.6567 136.113 28.3423 135.792 28.1714C135.478 27.9937 135.013 27.9048 134.397 27.9048C133.707 27.9048 133.218 28.0757 132.931 28.4175C132.726 28.6704 132.589 29.0122 132.521 29.4429H129.701C129.763 28.4653 130.036 27.6621 130.521 27.0332C131.294 26.0488 132.62 25.5566 134.5 25.5566C135.724 25.5566 136.811 25.7993 137.761 26.2847C138.711 26.77 139.186 27.686 139.186 29.0327V34.1597C139.186 34.5151 139.193 34.9458 139.207 35.4517C139.227 35.8345 139.285 36.0942 139.381 36.231C139.477 36.3677 139.62 36.4805 139.812 36.5693V37H136.633C136.544 36.7744 136.482 36.5625 136.448 36.3643C136.414 36.166 136.387 35.9404 136.366 35.6875C135.963 36.125 135.498 36.4976 134.972 36.8052C134.343 37.1675 133.632 37.3486 132.839 37.3486C131.827 37.3486 130.99 37.0615 130.327 36.4873C129.67 35.9062 129.342 35.0859 129.342 34.0264C129.342 32.6523 129.872 31.6577 130.932 31.0425C131.513 30.7075 132.367 30.4683 133.495 30.3247L134.49 30.2017ZM147.861 25.5566C147.916 25.5566 147.96 25.5601 147.994 25.5669C148.035 25.5669 148.121 25.5703 148.25 25.5771V28.5713C148.066 28.5508 147.902 28.5371 147.758 28.5303C147.615 28.5234 147.499 28.52 147.41 28.52C146.234 28.52 145.444 28.9028 145.041 29.6685C144.815 30.0991 144.703 30.7622 144.703 31.6577V37H141.76V25.8232H144.549V27.7715C145 27.0264 145.393 26.5171 145.728 26.2437C146.275 25.7856 146.986 25.5566 147.861 25.5566Z" fill="white"/>
<path d="M51.7812 23.7422H41.2637L37.8271 20.4551C37.7834 20.4141 37.7259 20.3911 37.666 20.3906H30.2188C29.7002 20.3906 29.2812 20.8096 29.2812 21.3281V38.6719C29.2812 39.1904 29.7002 39.6094 30.2188 39.6094H51.7812C52.2998 39.6094 52.7188 39.1904 52.7188 38.6719V24.6797C52.7188 24.1611 52.2998 23.7422 51.7812 23.7422Z" fill="white"/>
</svg>
