<svg width="30" height="30" viewBox="0 0 30 30" fill="none" xmlns="http://www.w3.org/2000/svg">
<path fill-rule="evenodd" clip-rule="evenodd" d="M14.9992 1.875C15.2479 1.875 15.4863 1.97377 15.6621 2.14959C15.838 2.3254 15.9367 2.56386 15.9367 2.8125V24.9244L21.8355 19.0238C22.0115 18.8477 22.2503 18.7488 22.4992 18.7488C22.7482 18.7488 22.9869 18.8477 23.163 19.0238C23.339 19.1998 23.4379 19.4385 23.4379 19.6875C23.4379 19.9365 23.339 20.1752 23.163 20.3512L15.663 27.8512C15.5759 27.9386 15.4724 28.0078 15.3585 28.0551C15.2446 28.1023 15.1225 28.1267 14.9992 28.1267C14.8759 28.1267 14.7538 28.1023 14.6399 28.0551C14.526 28.0078 14.4226 27.9386 14.3355 27.8512L6.83548 20.3512C6.65944 20.1752 6.56055 19.9365 6.56055 19.6875C6.56055 19.4385 6.65944 19.1998 6.83548 19.0238C7.01152 18.8477 7.25028 18.7488 7.49923 18.7488C7.74819 18.7488 7.98694 18.8477 8.16298 19.0238L14.0617 24.9244V2.8125C14.0617 2.56386 14.1605 2.3254 14.3363 2.14959C14.5121 1.97377 14.7506 1.875 14.9992 1.875Z" fill="black"/>
</svg>
